# xmcd
#
# Track frame offsets:
#	150
#	60706
#	89637
#	130652
#	187724
#
# Disc length: 2812 seconds
#
# Revision: 1
# Processed by: cddbd v1.5.2PL0 Copyright (c) Steve Scherf et al.
# Submitted via: audiograbber 1.83.01
#
DISCID=3a0afa05
DTITLE=Grateful Dead - 80-05-07 Barton Hall, Cornell Uni, Ithaca NY
DYEAR=1900
DGENRE=
TTITLE0=Shakedown Street
TTITLE1=Bertha
TTITLE2=Playing In The Band
TTITLE3=Terrapin Station
TTITLE4=Drums
EXTD=
EXTT0=
EXTT1=
EXTT2=
EXTT3=
EXTT4=
PLAYORDER=
